# xmcd
#
# Track frame offsets:
#  150
#  20258
#  41653
#  59852
#
# Disc length: 1058 seconds
#
# Revision: 2
# Processed by: cddbd v1.4PL0 Copyright (c) Steve Scherf et al.
# Submitted via: AltoMP3_Maker 3.0
#
DISCID=32042004
DTITLE=KK - Þangað sem vindurinn blæs
DYEAR=2002
DGENRE=blues
TTITLE0=It Ain't My Cross To Bear
TTITLE1=Tired Of Trying
TTITLE2=Talking Woman Blues
TTITLE3=Boogie Woogie Nighthawk
EXTD=
EXTT0=
EXTT1=
EXTT2=
EXTT3=
PLAYORDER=
